<?xml version="1.0" standalone="yes"?>
<svg xmlns="http://www.w3.org/2000/svg" width="241" height="241">
<path style="fill:#fdfefe; stroke:none;" d="M0 0L0 241L241 241L241 0L0 0z"/>
<path style="fill:#b0d2e2; stroke:none;" d="M22 22L23 23L22 22z"/>
<path style="fill:#6b819e; stroke:none;" d="M22 107L23 107L23 23L107 23L87 22L43 22L23.0278 23.6034L22 46L22 107z"/>
<path style="fill:#b0d2e2; stroke:none;" d="M131 22L132 23L131 22z"/>
<path style="fill:#6b819e; stroke:none;" d="M131 107L132 107L132 23L216 23L196 22L152 22L132.028 23.6034L131 46L131 107z"/>
<path style="fill:#213066; stroke:none;" d="M23 23L23 107L51 107L50.3966 91.3256L32 77L32 76L34 73C40.0072 75.5269 53.7972 82.9892 56.3966 89.1844C58.4389 94.0518 57 101.775 57 107L73 107C73 98.0426 71.3402 90.1351 79.0046 84.0147C80.7327 82.6347 94.44 71.514 95.3688 76.2423C96.3301 81.1356 83.3052 86.4913 80.6034 89.7492C77.3417 93.6823 79 102.175 79 107L107 107L107 23L23 23z"/>
<path style="fill:#b0d2e2; stroke:none;" d="M107 23L107 107L108 107L108 49L107 23z"/>
<path style="fill:#213066; stroke:none;" d="M132 23L132 107L160 107L159.397 91.3758L141 77L141 76C147.699 72.789 162.817 83.3846 165.397 90.0401C167.258 94.8444 166 101.9 166 107L182 107C182 101.896 180.745 94.8498 182.603 90.0394C185.282 83.1036 199.966 73.1568 207 76L207 77L188.603 91.3256L188 107L216 107L216 23L132 23z"/>
<path style="fill:#b0d2e2; stroke:none;" d="M216 23L216 26L217 26L216 23M216 30L216 64L217 64L216 30z"/>
<path style="fill:#2a8cc4; stroke:none;" d="M61 47.4792C39.6986 51.8707 48.4378 84.4318 69 79.4668C89.6674 74.4764 82.101 43.1289 61 47.4792M170 47.483C148.907 52.0229 157.205 84.4876 178 79.4668C198.647 74.4817 190.503 43.0701 170 47.483z"/>
<path style="fill:#213066; stroke:none;" d="M60.0185 54.0278C47.6988 60.4332 57.7564 78.9788 69.9568 72.6821C82.4228 66.2483 72.3511 47.6157 60.0185 54.0278M170.005 53.7423C157.075 58.7457 164.973 78.2981 177.995 73.2577C190.96 68.2399 183.029 48.702 170.005 53.7423z"/>
<path style="fill:#b0d2e2; stroke:none;" d="M216 72L216 96L217 96L216 72z"/>
<path style="fill:#2a8cc4; stroke:none;" d="M34 73L32 76L49.9722 91.3256L51 107C58.5407 106.412 59.0393 94.2985 56.3966 88.3256C53.799 82.4544 39.9873 74.553 34 73M73 107L79 107C79 102.267 77.4899 94.4371 80.6034 90.5147C83.3874 87.0073 97.7729 81.136 96.1096 75.7276C94.4589 70.3604 83.0828 80.234 81 81.7454C71.4557 88.6711 73 96.192 73 107M141 77C143.39 77 145.707 80.947 148 82.6667C159.139 91.021 160 93.1918 160 107L166 107C166 92.7923 165.993 87.8523 154 79.152C149.541 75.9172 145.375 72.0831 141 77M202 73C196.436 77.7423 186.652 81.7019 183.028 88.1736C179.798 93.9405 180.416 106.409 188 107L188.603 92.1844L207 77L207 76L202 73z"/>
<path style="fill:#6b819e; stroke:none;" d="M203.333 73.6667L203.667 74.3333L203.333 73.6667M34 74L35 75L34 74M204 75L205 76L204 75M33 76L34 77L33 76M96 76L97 77L96 76M142.333 76.6667L142.667 77.3333L142.333 76.6667z"/>
<path style="fill:#b0d2e2; stroke:none;" d="M216.333 105.667L216.667 106.333L216.333 105.667z"/>
<path style="fill:#6b819e; stroke:none;" d="M56 106L57 107L56 106M182 106L183 107L182 106z"/>
<path style="fill:#b0d2e2; stroke:none;" d="M23 107L23 108L56 108L23 107M57 107L57 108L74 108L57 107M75.6667 107.333L76.3333 107.667L75.6667 107.333M78 107L78 108L107 108L78 107M131 107L131 108L216 108L190 107L131 107M22 131L23 132L22 131z"/>
<path style="fill:#6b819e; stroke:none;" d="M22 216L23 216L23 132L107 132L87 131L43 131L23.0278 132.603L22 155L22 216M131 131L131 216L132 216L132 132L216 132L190 131L131 131z"/>
<path style="fill:#213066; stroke:none;" d="M23 132L23 216L51 216L50.3966 200.326L32 186L32 185C38.7941 181.743 53.7935 192.323 56.3966 199.04C58.2584 203.844 57 210.9 57 216L73 216C73 210.896 71.7455 203.85 73.6034 199.039C76.2089 192.293 92.3684 180.189 98 187C82.7286 193.424 79 200.497 79 216L107 216L107 132L23 132z"/>
<path style="fill:#b0d2e2; stroke:none;" d="M107 132L107 216L108 216L108 158L107 132z"/>
<path style="fill:#213066; stroke:none;" d="M132 132L132 216L160 216C160 200.556 156.242 193.411 141 187L143 182C149.562 185.118 162.663 191.962 165.397 199.039C167.255 203.85 166 210.896 166 216L182 216C182 210.896 180.745 203.85 182.603 199.039C185.239 192.216 201.326 180.093 207 187C191.604 192.837 188 200.895 188 216L216 216L216 132L132 132z"/>
<path style="fill:#b0d2e2; stroke:none;" d="M216.333 132.667L216.667 133.333L216.333 132.667M216 144L216 212L217 212L217 165L216 144z"/>
<path style="fill:#2a8cc4; stroke:none;" d="M60.0008 156.569C39.1349 162.332 49.6665 194.476 70 188.197C90.0467 182.006 80.6025 150.878 60.0008 156.569M170 156.482C148.652 161.008 157.401 193.441 178 188.467C198.389 183.544 190.819 152.068 170 156.482z"/>
<path style="fill:#213066; stroke:none;" d="M61.0046 162.742C48.042 167.759 56.3076 187.211 68.9853 182.258C82.0132 177.168 73.9148 157.746 61.0046 162.742M170.005 162.742C157.043 167.758 165.312 187.225 177.985 182.258C190.872 177.206 182.723 157.82 170.005 162.742z"/>
<path style="fill:#2a8cc4; stroke:none;" d="M32 185C35.3406 189.151 39.672 192.213 43.9992 195.279C46.6127 197.131 49.7802 198.786 50.6821 202.093C51.6293 205.566 49.5171 211.321 52.0231 214.214C57.1009 220.074 57.0277 204.717 56.9954 203C56.831 194.258 40.2889 179.938 32 185M98 187C92.4654 176.165 73.0581 195.678 73.0008 204C72.984 206.431 71.7647 216.53 76.7407 215.029C81.1531 213.698 78.037 203.656 80.0278 200.325C83.333 194.794 92.6081 190.327 98 187M143 182L141 187C146.311 190.278 155.723 194.91 158.972 200.326C161.039 203.77 157.78 213.578 162.259 215.11C167.645 216.951 166.454 200.749 165.397 198.09C162.657 191.205 149.613 184.458 143 182z"/>
<path style="fill:#6b819e; stroke:none;" d="M144 182L145 183L144 182z"/>
<path style="fill:#2a8cc4; stroke:none;" d="M188 216C188 200.111 192.832 194.897 207 187C203.547 180.237 198.676 184.668 194 188C190.444 190.534 185.218 193.262 183.028 197.174C179.695 203.125 180.534 214.933 188 216z"/>
<path style="fill:#6b819e; stroke:none;" d="M33 186L34 187L33 186z"/>
<path style="fill:#b0d2e2; stroke:none;" d="M216.333 214.667L216.667 215.333L216.333 214.667z"/>
<path style="fill:#6b819e; stroke:none;" d="M51.6667 215.333L52.3333 215.667L51.6667 215.333M55.6667 215.333L56.3333 215.667L55.6667 215.333M73.6667 215.333L74.3333 215.667L73.6667 215.333M77.6667 215.333L78.3333 215.667L77.6667 215.333M160.667 215.333L161.333 215.667L160.667 215.333M165 215L166 216L165 215M182.667 215.333L183.333 215.667L182.667 215.333M186 215L187 216L186 215z"/>
<path style="fill:#b0d2e2; stroke:none;" d="M22 216L22 217L65 217C53.7744 212.29 34.2189 216 22 216M66.6667 216.333L67.3333 216.667L66.6667 216.333M71 216L71 217L77 217L71 216M79 216L79 217L83 217L79 216M88 216L88 217L96 217L88 216M103 216L104 217L103 216M105.667 216.333L106.333 216.667L105.667 216.333M132 216L132 217L136 217L132 216M154 216L155 217L154 216M158.667 216.333L159.333 216.667L158.667 216.333M162.667 216.333L163.333 216.667L162.667 216.333M165 216L165 217L168 217L165 216M176 216L177 217L176 216M179 216L179 217L183 217L179 216M184.667 216.333L185.333 216.667L184.667 216.333M188.667 216.333L189.333 216.667L188.667 216.333M200 216L200 217L208 217L200 216M213 216L213 217L216 217L213 216z"/>
</svg>
